<svg xmlns="http://www.w3.org/2000/svg" width="66.771" height="71.534" viewBox="0 0 66.771 71.534">
  <g id="_001-medical-history" data-name="001-medical-history" transform="translate(-0.004)">
    <path id="Path_7553" data-name="Path 7553" d="M131.581,46.059h1.192v1.192a3.577,3.577,0,0,0,7.153,0V46.059h1.192a3.577,3.577,0,1,0,0-7.153h-1.192V37.713a3.577,3.577,0,0,0-7.153,0v1.192h-1.192a3.577,3.577,0,0,0,0,7.153Zm0-4.769h2.384a1.192,1.192,0,0,0,1.193-1.192V37.713a1.192,1.192,0,0,1,2.384,0V40.1a1.192,1.192,0,0,0,1.192,1.192h2.384a1.192,1.192,0,1,1,0,2.384h-2.384a1.192,1.192,0,0,0-1.192,1.192v2.385a1.192,1.192,0,0,1-2.384,0V44.866a1.192,1.192,0,0,0-1.193-1.192h-2.384a1.192,1.192,0,0,1,0-2.384Zm0,0" transform="translate(-110.117 -29.367)" fill="#0f95f2"/>
    <path id="Path_7554" data-name="Path 7554" d="M46.5,9.538H38.84a13.1,13.1,0,0,0-25.213,0H5.965A5.968,5.968,0,0,0,0,15.5V65.573a5.969,5.969,0,0,0,5.961,5.961H46.5a5.969,5.969,0,0,0,5.961-5.961V15.5A5.968,5.968,0,0,0,46.5,9.538ZM26.233,26.229A13.13,13.13,0,0,0,38.84,16.691h6.469V64.38H7.157V16.691h6.469a13.129,13.129,0,0,0,12.606,9.538Zm0-23.844A10.73,10.73,0,1,1,15.5,13.115a10.73,10.73,0,0,1,10.73-10.73ZM50.077,65.573A3.577,3.577,0,0,1,46.5,69.149H5.965a3.576,3.576,0,0,1-3.576-3.576V15.5a3.576,3.576,0,0,1,3.576-3.576h7.214c-.036.393-.061.789-.061,1.192s.025.8.061,1.192H7.157a2.384,2.384,0,0,0-2.384,2.384V64.38a2.384,2.384,0,0,0,2.384,2.384H45.308a2.384,2.384,0,0,0,2.384-2.384V16.692a2.384,2.384,0,0,0-2.384-2.384H39.287c.035-.393.061-.789.061-1.192s-.025-.8-.061-1.192H46.5A3.577,3.577,0,0,1,50.077,15.5Zm0,0" fill="#0f95f2"/>
    <path id="Path_7555" data-name="Path 7555" d="M70.654,214.339a1.192,1.192,0,0,0,0-2.384v-4.769h5.961a1.192,1.192,0,0,0,0-2.384H70.654a2.384,2.384,0,0,0-2.384,2.384v4.769A2.384,2.384,0,0,0,70.654,214.339Zm0,0" transform="translate(-58.728 -176.187)" fill="#0f95f2"/>
    <path id="Path_7556" data-name="Path 7556" d="M104.528,217.353a1.192,1.192,0,0,0-1.686,1.685l2.384,2.385a1.193,1.193,0,0,0,1.686,0l5.961-5.961a1.192,1.192,0,0,0-1.686-1.686l-5.118,5.118Zm0,0" transform="translate(-88.182 -183.62)" fill="#0f95f2"/>
    <path id="Path_7557" data-name="Path 7557" d="M282.794,215.72h1.192a1.192,1.192,0,1,0,0-2.384h-1.192a1.192,1.192,0,1,0,0,2.384Zm0,0" transform="translate(-242.255 -183.53)" fill="#0f95f2"/>
    <path id="Path_7558" data-name="Path 7558" d="M205.993,215.72h5.961a1.192,1.192,0,0,0,0-2.384h-5.961a1.192,1.192,0,1,0,0,2.384Zm0,0" transform="translate(-176.184 -183.53)" fill="#0f95f2"/>
    <path id="Path_7559" data-name="Path 7559" d="M205.993,249.853h9.538a1.192,1.192,0,1,0,0-2.384h-9.538a1.192,1.192,0,1,0,0,2.384Zm0,0" transform="translate(-176.184 -212.894)" fill="#0f95f2"/>
    <path id="Path_7560" data-name="Path 7560" d="M70.654,299.674a1.192,1.192,0,0,0,0-2.384v-4.769h5.961a1.192,1.192,0,0,0,0-2.384H70.654a2.384,2.384,0,0,0-2.384,2.384v4.769A2.384,2.384,0,0,0,70.654,299.674Zm0,0" transform="translate(-58.728 -249.6)" fill="#0f95f2"/>
    <path id="Path_7561" data-name="Path 7561" d="M111.188,299.107l-5.118,5.118-1.542-1.541a1.192,1.192,0,0,0-1.686,1.686l2.384,2.384a1.192,1.192,0,0,0,1.686,0l5.961-5.961a1.192,1.192,0,0,0-1.686-1.686Zm0,0" transform="translate(-88.182 -257.03)" fill="#0f95f2"/>
    <path id="Path_7562" data-name="Path 7562" d="M283.986,298.668h-1.192a1.192,1.192,0,1,0,0,2.384h1.192a1.192,1.192,0,1,0,0-2.384Zm0,0" transform="translate(-242.254 -256.94)" fill="#0f95f2"/>
    <path id="Path_7563" data-name="Path 7563" d="M205.993,301.052h5.961a1.192,1.192,0,0,0,0-2.384h-5.961a1.192,1.192,0,1,0,0,2.384Zm0,0" transform="translate(-176.184 -256.94)" fill="#0f95f2"/>
    <path id="Path_7564" data-name="Path 7564" d="M205.993,335.185h9.538a1.192,1.192,0,1,0,0-2.384h-9.538a1.192,1.192,0,1,0,0,2.384Zm0,0" transform="translate(-176.184 -286.304)" fill="#0f95f2"/>
    <path id="Path_7565" data-name="Path 7565" d="M70.654,385.006a1.192,1.192,0,0,0,0-2.384v-4.769h5.961a1.192,1.192,0,0,0,0-2.384H70.654a2.384,2.384,0,0,0-2.384,2.384v4.769A2.384,2.384,0,0,0,70.654,385.006Zm0,0" transform="translate(-58.728 -323.01)" fill="#0f95f2"/>
    <path id="Path_7566" data-name="Path 7566" d="M111.188,384.443l-5.118,5.118-1.542-1.542a1.192,1.192,0,0,0-1.686,1.686l2.384,2.384a1.192,1.192,0,0,0,1.686,0l5.961-5.961a1.192,1.192,0,0,0-1.686-1.686Zm0,0" transform="translate(-88.182 -330.443)" fill="#0f95f2"/>
    <path id="Path_7567" data-name="Path 7567" d="M283.986,384h-1.192a1.192,1.192,0,1,0,0,2.384h1.192a1.192,1.192,0,1,0,0-2.384Zm0,0" transform="translate(-242.254 -330.353)" fill="#0f95f2"/>
    <path id="Path_7568" data-name="Path 7568" d="M205.993,386.388h5.961a1.192,1.192,0,0,0,0-2.384h-5.961a1.192,1.192,0,1,0,0,2.384Zm0,0" transform="translate(-176.184 -330.353)" fill="#0f95f2"/>
    <path id="Path_7569" data-name="Path 7569" d="M205.993,420.521h9.538a1.192,1.192,0,1,0,0-2.385h-9.538a1.192,1.192,0,1,0,0,2.385Zm0,0" transform="translate(-176.184 -359.717)" fill="#0f95f2"/>
    <path id="Path_7570" data-name="Path 7570" d="M401.314,110.934h-5.723a3.368,3.368,0,0,0-3.1,3.577v39.344a1.176,1.176,0,0,0,.067.391l3.883,11.174a2.079,2.079,0,0,0,4.018.014l3.888-11.189a1.171,1.171,0,0,0,.066-.39V114.511A3.368,3.368,0,0,0,401.314,110.934Zm-.7,46.775a8.6,8.6,0,0,0-4.334,0l-.925-2.662h6.185Zm-5.743-32.468v-3.577h7.153v3.577Zm4.769,27.421v-15.5a1.192,1.192,0,0,0-2.385,0v15.5h-2.384V127.626h2.384v4.769a1.192,1.192,0,1,0,2.385,0v-4.769h2.384v25.037Zm-4.053-39.343h5.723c.338,0,.715.51.715,1.192v4.769h-7.153v-4.769C394.876,113.829,395.252,113.319,395.591,113.319Zm2.861,50.623-1.383-3.98a6.625,6.625,0,0,1,2.767,0Zm0,0" transform="translate(-337.645 -95.435)" fill="#0f95f2"/>
  </g>
</svg>
