<svg xmlns="http://www.w3.org/2000/svg" xmlns:xlink="http://www.w3.org/1999/xlink" width="950" height="625" viewBox="0 0 950 625">
  <defs>
    <clipPath id="clip-Artboard_1">
      <rect width="950" height="625"/>
    </clipPath>
  </defs>
  <g id="Artboard_1" data-name="Artboard – 1" clip-path="url(#clip-Artboard_1)">
    <g id="Group_838" data-name="Group 838" transform="translate(60 22)">
      <g id="Group_542" data-name="Group 542" transform="translate(73.91 -81.65)" opacity="0.4">
        <path id="Path_4463" data-name="Path 4463" d="M660.3,269.261a2.94,2.94,0,1,1-2.916-2.566A2.758,2.758,0,0,1,660.3,269.261Z" transform="translate(-197.015 -48.792)" fill="#fff"/>
        <path id="Path_4464" data-name="Path 4464" d="M650.676,260.415a1.792,1.792,0,1,1-1.778-1.565A1.682,1.682,0,0,1,650.676,260.415Z" transform="translate(-195.776 -47.469)" fill="#fff"/>
        <path id="Path_4465" data-name="Path 4465" d="M625.534,257.5c0,2.4-2.21,4.344-4.936,4.344s-4.935-1.945-4.935-4.344,2.209-4.344,4.935-4.344S625.534,255.1,625.534,257.5Z" transform="translate(-190.471 -46.509)" fill="#fff"/>
        <path id="Path_4466" data-name="Path 4466" d="M593.746,277.108a1.935,1.935,0,1,1-1.92-1.69A1.816,1.816,0,0,1,593.746,277.108Z" transform="translate(-186.127 -50.264)" fill="#fff"/>
        <path id="Path_4467" data-name="Path 4467" d="M588.907,320.737a1.649,1.649,0,1,1-1.636-1.44A1.547,1.547,0,0,1,588.907,320.737Z" transform="translate(-185.407 -57.664)" fill="#fff"/>
        <ellipse id="Ellipse_163" data-name="Ellipse 163" cx="4.596" cy="4.045" rx="4.596" ry="4.045" transform="translate(399.715 317.094)" fill="#fff"/>
        <path id="Path_4468" data-name="Path 4468" d="M536.262,426.247a1.722,1.722,0,1,1-1.708-1.5A1.616,1.616,0,0,1,536.262,426.247Z" transform="translate(-176.504 -75.447)" fill="#fff"/>
        <ellipse id="Ellipse_164" data-name="Ellipse 164" cx="5.155" cy="4.537" rx="5.155" ry="4.537" transform="translate(306.24 317.001)" fill="#fff"/>
        <path id="Path_4469" data-name="Path 4469" d="M461.213,366c0,2.457-2.263,4.449-5.054,4.449s-5.055-1.992-5.055-4.449,2.263-4.448,5.055-4.448S461.213,363.545,461.213,366Z" transform="translate(-162.718 -64.79)" fill="#fff"/>
        <path id="Path_4470" data-name="Path 4470" d="M450.959,350.8a3.1,3.1,0,1,1-3.079-2.71A2.913,2.913,0,0,1,450.959,350.8Z" transform="translate(-161.655 -62.519)" fill="#fff"/>
        <path id="Path_4471" data-name="Path 4471" d="M466.361,296.535a4.269,4.269,0,1,1-4.234-3.727A4,4,0,0,1,466.361,296.535Z" transform="translate(-163.863 -53.196)" fill="#fff"/>
        <path id="Path_4472" data-name="Path 4472" d="M435.174,277.888a2.866,2.866,0,1,1-2.843-2.5A2.689,2.689,0,0,1,435.174,277.888Z" transform="translate(-159.073 -50.258)" fill="#fff"/>
        <path id="Path_4473" data-name="Path 4473" d="M421.527,219.862a3.06,3.06,0,1,1-3.035-2.671A2.871,2.871,0,0,1,421.527,219.862Z" transform="translate(-156.706 -40.444)" fill="#fff"/>
        <path id="Path_4474" data-name="Path 4474" d="M475.34,198.333a4.338,4.338,0,1,1-4.3-3.788A4.07,4.07,0,0,1,475.34,198.333Z" transform="translate(-165.354 -36.624)" fill="#fff"/>
        <path id="Path_4475" data-name="Path 4475" d="M523.572,173.317c0,2.537-2.338,4.595-5.221,4.595s-5.221-2.058-5.221-4.595,2.337-4.6,5.221-4.6S523.572,170.779,523.572,173.317Z" transform="translate(-173.179 -32.269)" fill="#fff"/>
        <ellipse id="Ellipse_165" data-name="Ellipse 165" cx="4.693" cy="4.131" rx="4.693" ry="4.131" transform="translate(344.339 136.914)" fill="#fff"/>
        <path id="Path_4476" data-name="Path 4476" d="M584.241,238.937a4.5,4.5,0,1,1-4.464-3.928A4.222,4.222,0,0,1,584.241,238.937Z" transform="translate(-183.666 -43.449)" fill="#fff"/>
        <path id="Path_4477" data-name="Path 4477" d="M644.514,228.458a3.933,3.933,0,1,1-3.9-3.434A3.69,3.69,0,0,1,644.514,228.458Z" transform="translate(-194.021 -41.765)" fill="#fff"/>
        <path id="Path_4478" data-name="Path 4478" d="M701.973,190.433a2.793,2.793,0,1,1-2.77-2.438A2.62,2.62,0,0,1,701.973,190.433Z" transform="translate(-204.092 -35.52)" fill="#fff"/>
        <path id="Path_4479" data-name="Path 4479" d="M688.027,151.506a3.719,3.719,0,1,1-3.689-3.246A3.489,3.489,0,0,1,688.027,151.506Z" transform="translate(-201.431 -28.819)" fill="#fff"/>
        <path id="Path_4480" data-name="Path 4480" d="M666.746,128.09a3.825,3.825,0,1,1-3.794-3.34A3.588,3.588,0,0,1,666.746,128.09Z" transform="translate(-197.806 -24.854)" fill="#fff"/>
        <ellipse id="Ellipse_166" data-name="Ellipse 166" cx="1.259" cy="1.108" rx="1.259" ry="1.108" transform="translate(415.218 131.968)" fill="#fff"/>
        <path id="Path_4481" data-name="Path 4481" d="M579.658,142.135a1.772,1.772,0,1,1-1.758-1.547A1.662,1.662,0,0,1,579.658,142.135Z" transform="translate(-183.806 -27.525)" fill="#fff"/>
        <path id="Path_4482" data-name="Path 4482" d="M558.124,128.408a4.448,4.448,0,1,1-4.413-3.883A4.174,4.174,0,0,1,558.124,128.408Z" transform="translate(-179.279 -24.816)" fill="#fff"/>
        <path id="Path_4488" data-name="Path 4488" d="M447.1,115.507a1.415,1.415,0,1,1-1.4-1.235A1.328,1.328,0,0,1,447.1,115.507Z" transform="translate(-161.57 -23.087)" fill="#fff"/>
        <path id="Path_4489" data-name="Path 4489" d="M464.552,156.861a2.889,2.889,0,1,1-2.866-2.521A2.71,2.71,0,0,1,464.552,156.861Z" transform="translate(-164.02 -29.844)" fill="#fff"/>
        <ellipse id="Ellipse_168" data-name="Ellipse 168" cx="4.094" cy="3.603" rx="4.094" ry="3.603" transform="translate(272.035 100.871)" fill="#fff"/>
        <ellipse id="Ellipse_169" data-name="Ellipse 169" cx="4.864" cy="4.281" rx="4.864" ry="4.281" transform="translate(236.598 89.34)" fill="#fff"/>
        <path id="Path_4491" data-name="Path 4491" d="M342.171,110.125A2.088,2.088,0,1,1,340.1,108.3,1.959,1.959,0,0,1,342.171,110.125Z" transform="translate(-143.648 -22.08)" fill="#fff"/>
        <path id="Path_4495" data-name="Path 4495" d="M253.6,118.745a2.894,2.894,0,1,1-2.871-2.526A2.715,2.715,0,0,1,253.6,118.745Z" transform="translate(-128.441 -23.415)" fill="#fff"/>
        <path id="Path_4496" data-name="Path 4496" d="M250.936,142.681a2.72,2.72,0,1,1-2.7-2.374A2.553,2.553,0,0,1,250.936,142.681Z" transform="translate(-128.05 -27.477)" fill="#fff"/>
        <path id="Path_4497" data-name="Path 4497" d="M307.07,163.039a2.062,2.062,0,1,1-2.045-1.8A1.934,1.934,0,0,1,307.07,163.039Z" transform="translate(-137.737 -31.007)" fill="#fff"/>
        <path id="Path_4498" data-name="Path 4498" d="M260.839,188.942a4.788,4.788,0,1,1-4.75-4.18A4.492,4.492,0,0,1,260.839,188.942Z" transform="translate(-129.028 -34.975)" fill="#fff"/>
        <path id="Path_4499" data-name="Path 4499" d="M277.669,198.2a4.44,4.44,0,1,1-4.4-3.877A4.166,4.166,0,0,1,277.669,198.2Z" transform="translate(-131.983 -36.587)" fill="#fff"/>
        <ellipse id="Ellipse_170" data-name="Ellipse 170" cx="3.746" cy="3.297" rx="3.746" ry="3.297" transform="translate(161.776 170.198)" fill="#fff"/>
        <path id="Path_4500" data-name="Path 4500" d="M309.474,257.273a3.719,3.719,0,1,1-3.689-3.246A3.488,3.488,0,0,1,309.474,257.273Z" transform="translate(-137.588 -46.656)" fill="#fff"/>
        <path id="Path_4501" data-name="Path 4501" d="M350.768,233.657a1.5,1.5,0,1,1-1.491-1.312A1.41,1.41,0,0,1,350.768,233.657Z" transform="translate(-145.294 -42.999)" fill="#fff"/>
        <path id="Path_4502" data-name="Path 4502" d="M330.048,291.419a4.279,4.279,0,1,1-4.244-3.735A4.014,4.014,0,0,1,330.048,291.419Z" transform="translate(-140.871 -52.332)" fill="#fff"/>
        <path id="Path_4503" data-name="Path 4503" d="M403.125,284.529a4.689,4.689,0,1,1-4.651-4.094A4.4,4.4,0,0,1,403.125,284.529Z" transform="translate(-153.058 -51.11)" fill="#fff"/>
        <ellipse id="Ellipse_171" data-name="Ellipse 171" cx="2.499" cy="2.2" rx="2.499" ry="2.2" transform="translate(196.338 231.854)" fill="#fff"/>
        <ellipse id="Ellipse_172" data-name="Ellipse 172" cx="3.384" cy="2.978" rx="3.384" ry="2.978" transform="translate(214.227 278.141)" fill="#fff"/>
        <path id="Path_4504" data-name="Path 4504" d="M274.8,331.229a4.282,4.282,0,1,1-4.247-3.739A4.017,4.017,0,0,1,274.8,331.229Z" transform="translate(-131.553 -59.045)" fill="#fff"/>
        <ellipse id="Ellipse_173" data-name="Ellipse 173" cx="1.379" cy="1.214" rx="1.379" ry="1.214" transform="translate(152.291 327.317)" fill="#fff"/>
        <path id="Path_4505" data-name="Path 4505" d="M330.121,398.538a3.306,3.306,0,1,1-3.279-2.886A3.1,3.1,0,0,1,330.121,398.538Z" transform="translate(-141.208 -70.541)" fill="#fff"/>
        <path id="Path_4506" data-name="Path 4506" d="M352.6,422.847a3.871,3.871,0,1,1-3.84-3.379A3.632,3.632,0,0,1,352.6,422.847Z" transform="translate(-144.81 -74.557)" fill="#fff"/>
        <path id="Path_4507" data-name="Path 4507" d="M404.477,444.427a3.721,3.721,0,1,1-3.69-3.248A3.491,3.491,0,0,1,404.477,444.427Z" transform="translate(-153.61 -78.219)" fill="#fff"/>
        <path id="Path_4508" data-name="Path 4508" d="M374.44,467.719a2.551,2.551,0,1,1-2.53-2.226A2.393,2.393,0,0,1,374.44,467.719Z" transform="translate(-148.936 -82.319)" fill="#fff"/>
        <path id="Path_4509" data-name="Path 4509" d="M405.92,511.482a3.839,3.839,0,1,1-3.808-3.352A3.6,3.6,0,0,1,405.92,511.482Z" transform="translate(-153.813 -89.51)" fill="#fff"/>
        <path id="Path_4510" data-name="Path 4510" d="M356.91,505.384a3.355,3.355,0,1,1-3.328-2.929A3.148,3.148,0,0,1,356.91,505.384Z" transform="translate(-145.71 -88.553)" fill="#fff"/>
        <path id="Path_4511" data-name="Path 4511" d="M343.043,549.257a1.8,1.8,0,1,1-1.79-1.575A1.693,1.693,0,0,1,343.043,549.257Z" transform="translate(-143.89 -96.18)" fill="#fff"/>
        <path id="Path_4512" data-name="Path 4512" d="M351.716,588.4a3.612,3.612,0,1,1-3.583-3.154A3.388,3.388,0,0,1,351.716,588.4Z" transform="translate(-144.748 -102.515)" fill="#fff"/>
        <ellipse id="Ellipse_174" data-name="Ellipse 174" cx="1.755" cy="1.544" rx="1.755" ry="1.544" transform="translate(194.371 486.679)" fill="#fff"/>
        <path id="Path_4513" data-name="Path 4513" d="M312.76,617.65a1.543,1.543,0,1,1-1.531-1.348A1.449,1.449,0,0,1,312.76,617.65Z" transform="translate(-138.87 -107.753)" fill="#fff"/>
        <path id="Path_4514" data-name="Path 4514" d="M323.643,648.4a.863.863,0,1,1-.856-.753A.809.809,0,0,1,323.643,648.4Z" transform="translate(-140.933 -113.039)" fill="#fff"/>
        <ellipse id="Ellipse_175" data-name="Ellipse 175" cx="2.042" cy="1.797" rx="2.042" ry="1.797" transform="translate(192.659 581.962)" fill="#fff"/>
        <path id="Path_4515" data-name="Path 4515" d="M366.112,722.533a2.169,2.169,0,1,1-2.151-1.894A2.034,2.034,0,0,1,366.112,722.533Z" transform="translate(-147.659 -125.349)" fill="#fff"/>
        <path id="Path_4516" data-name="Path 4516" d="M346.946,744.819a.926.926,0,1,1-.918-.809A.868.868,0,0,1,346.946,744.819Z" transform="translate(-144.842 -129.291)" fill="#fff"/>
        <path id="Path_4517" data-name="Path 4517" d="M338.251,788.683a2.65,2.65,0,1,1-2.628-2.313A2.486,2.486,0,0,1,338.251,788.683Z" transform="translate(-142.799 -136.435)" fill="#fff"/>
        <ellipse id="Ellipse_178" data-name="Ellipse 178" cx="4.206" cy="3.702" rx="4.206" ry="3.702" transform="translate(303.826 634.849)" fill="#fff"/>
        <ellipse id="Ellipse_179" data-name="Ellipse 179" cx="1.52" cy="1.338" rx="1.52" ry="1.338" transform="translate(312.018 630.586)" fill="#fff"/>
        <path id="Path_4522" data-name="Path 4522" d="M545.3,718.706a4.012,4.012,0,1,1-3.98-3.5A3.764,3.764,0,0,1,545.3,718.706Z" transform="translate(-177.262 -124.433)" fill="#fff"/>
        <ellipse id="Ellipse_180" data-name="Ellipse 180" cx="4.497" cy="3.958" rx="4.497" ry="3.958" transform="translate(367.014 586.516)" fill="#fff"/>
        <path id="Path_4523" data-name="Path 4523" d="M536.529,661.079a2.013,2.013,0,1,1-2-1.758A1.889,1.889,0,0,1,536.529,661.079Z" transform="translate(-176.451 -115.008)" fill="#fff"/>
        <path id="Path_4524" data-name="Path 4524" d="M520.917,621.636a4.105,4.105,0,1,1-4.072-3.584A3.851,3.851,0,0,1,520.917,621.636Z" transform="translate(-173.119 -108.048)" fill="#fff"/>
        <ellipse id="Ellipse_181" data-name="Ellipse 181" cx="3.566" cy="3.139" rx="3.566" ry="3.139" transform="translate(384.604 491.761)" fill="#fff"/>
        <ellipse id="Ellipse_182" data-name="Ellipse 182" cx="3.637" cy="3.201" rx="3.637" ry="3.201" transform="translate(389.528 464.404)" fill="#fff"/>
        <ellipse id="Ellipse_183" data-name="Ellipse 183" cx="2.172" cy="1.911" rx="2.172" ry="1.911" transform="translate(375.538 446.309)" fill="#fff"/>
        <path id="Path_4525" data-name="Path 4525" d="M625.232,542.669a3.825,3.825,0,1,1-3.794-3.34A3.588,3.588,0,0,1,625.232,542.669Z" transform="translate(-190.805 -94.772)" fill="#fff"/>
        <path id="Path_4526" data-name="Path 4526" d="M646.118,548.017a1.484,1.484,0,1,1-1.472-1.3A1.393,1.393,0,0,1,646.118,548.017Z" transform="translate(-195.11 -96.018)" fill="#fff"/>
        <ellipse id="Ellipse_184" data-name="Ellipse 184" cx="1.645" cy="1.448" rx="1.645" ry="1.448" transform="translate(435.544 401.574)" fill="#fff"/>
        <path id="Path_4527" data-name="Path 4527" d="M715.4,539.885a2.445,2.445,0,1,1-2.426-2.135A2.294,2.294,0,0,1,715.4,539.885Z" transform="translate(-206.473 -94.506)" fill="#fff"/>
        <path id="Path_4528" data-name="Path 4528" d="M699.375,547.227a3.413,3.413,0,1,1-3.385-2.98A3.2,3.2,0,0,1,699.375,547.227Z" transform="translate(-203.447 -95.601)" fill="#fff"/>
        <path id="Path_4529" data-name="Path 4529" d="M677.815,592.692a3.4,3.4,0,1,1-3.377-2.972A3.194,3.194,0,0,1,677.815,592.692Z" transform="translate(-199.814 -103.27)" fill="#fff"/>
        <path id="Path_4530" data-name="Path 4530" d="M705.848,575.579c0,2.47-2.276,4.473-5.082,4.473s-5.082-2-5.082-4.473,2.276-4.473,5.082-4.473S705.848,573.109,705.848,575.579Z" transform="translate(-203.966 -100.131)" fill="#fff"/>
        <path id="Path_4531" data-name="Path 4531" d="M787.552,598.4a4.159,4.159,0,1,1-4.125-3.63A3.9,3.9,0,0,1,787.552,598.4Z" transform="translate(-218.068 -104.122)" fill="#fff"/>
        <path id="Path_4532" data-name="Path 4532" d="M794.457,555.052a.669.669,0,1,1-.663-.584A.628.628,0,0,1,794.457,555.052Z" transform="translate(-220.4 -97.325)" fill="#fff"/>
        <ellipse id="Ellipse_185" data-name="Ellipse 185" cx="4.121" cy="3.627" rx="4.121" ry="3.627" transform="translate(588.696 439.444)" fill="#fff"/>
        <path id="Path_4533" data-name="Path 4533" d="M836.439,528.454a3.454,3.454,0,1,1-3.427-3.016A3.241,3.241,0,0,1,836.439,528.454Z" transform="translate(-226.549 -92.429)" fill="#fff"/>
        <path id="Path_4534" data-name="Path 4534" d="M815.827,467.69a3.325,3.325,0,1,1-3.3-2.9A3.12,3.12,0,0,1,815.827,467.69Z" transform="translate(-223.116 -82.2)" fill="#fff"/>
        <path id="Path_4535" data-name="Path 4535" d="M837.533,431.5a4.64,4.64,0,1,1-4.6-4.05A4.354,4.354,0,0,1,837.533,431.5Z" transform="translate(-226.336 -75.903)" fill="#fff"/>
        <ellipse id="Ellipse_186" data-name="Ellipse 186" cx="1.51" cy="1.329" rx="1.51" ry="1.329" transform="translate(634.337 326.825)" fill="#fff"/>
        <path id="Path_4536" data-name="Path 4536" d="M908.446,370.352a1.047,1.047,0,1,1-1.038-.914A.983.983,0,0,1,908.446,370.352Z" transform="translate(-239.498 -66.12)" fill="#fff"/>
        <path id="Path_4537" data-name="Path 4537" d="M965.633,351.078a4.435,4.435,0,1,1-4.4-3.872A4.161,4.161,0,0,1,965.633,351.078Z" transform="translate(-248.009 -62.37)" fill="#fff"/>
        <path id="Path_4538" data-name="Path 4538" d="M926.084,325.351a2.122,2.122,0,1,1-2.1-1.853A1.991,1.991,0,0,1,926.084,325.351Z" transform="translate(-242.113 -58.372)" fill="#fff"/>
        <ellipse id="Ellipse_187" data-name="Ellipse 187" cx="2.015" cy="1.774" rx="2.015" ry="1.774" transform="translate(637.61 251.375)" fill="#fff"/>
        <path id="Path_4539" data-name="Path 4539" d="M867.049,307.645a2.68,2.68,0,1,1-2.659-2.339A2.515,2.515,0,0,1,867.049,307.645Z" transform="translate(-231.97 -55.304)" fill="#fff"/>
        <path id="Path_4540" data-name="Path 4540" d="M806.606,311.822a1.815,1.815,0,1,1-1.8-1.584A1.7,1.7,0,0,1,806.606,311.822Z" transform="translate(-222.066 -56.136)" fill="#fff"/>
        <path id="Path_4541" data-name="Path 4541" d="M787,331.572a3.539,3.539,0,1,1-3.511-3.09A3.32,3.32,0,0,1,787,331.572Z" transform="translate(-218.182 -59.213)" fill="#fff"/>
        <path id="Path_4542" data-name="Path 4542" d="M793.1,266.875a1.657,1.657,0,1,1-1.644-1.447A1.555,1.555,0,0,1,793.1,266.875Z" transform="translate(-219.841 -48.579)" fill="#fff"/>
        <ellipse id="Ellipse_188" data-name="Ellipse 188" cx="1.66" cy="1.461" rx="1.66" ry="1.461" transform="translate(506.172 253.347)" fill="#fff"/>
        <ellipse id="Ellipse_189" data-name="Ellipse 189" cx="4.687" cy="4.125" rx="4.687" ry="4.125" transform="translate(487.232 229.693)" fill="#fff"/>
        <path id="Path_4543" data-name="Path 4543" d="M658.926,292.376a2.884,2.884,0,1,1-2.861-2.517A2.706,2.706,0,0,1,658.926,292.376Z" transform="translate(-196.802 -52.699)" fill="#fff"/>
        <path id="Path_4544" data-name="Path 4544" d="M307.276,396.583a3.556,3.556,0,1,1-3.527-3.1A3.336,3.336,0,0,1,307.276,396.583Z" transform="translate(-137.272 -70.174)" fill="#fff"/>
        <path id="Path_4545" data-name="Path 4545" d="M245.018,374.721a3.911,3.911,0,1,1-3.879-3.414A3.669,3.669,0,0,1,245.018,374.721Z" transform="translate(-126.654 -66.435)" fill="#fff"/>
        <path id="Path_4546" data-name="Path 4546" d="M186.291,414.755a3.547,3.547,0,1,1-3.517-3.1A3.327,3.327,0,0,1,186.291,414.755Z" transform="translate(-116.871 -73.24)" fill="#fff"/>
        <path id="Path_4547" data-name="Path 4547" d="M160.459,370.654a2.94,2.94,0,1,1-2.916-2.566A2.758,2.758,0,0,1,160.459,370.654Z" transform="translate(-112.718 -65.892)" fill="#fff"/>
        <path id="Path_4548" data-name="Path 4548" d="M151.034,371.166a2.785,2.785,0,1,1-2.763-2.432A2.613,2.613,0,0,1,151.034,371.166Z" transform="translate(-111.18 -66.001)" fill="#fff"/>
        <path id="Path_4549" data-name="Path 4549" d="M146.917,347.051c0,2.5-2.3,4.523-5.139,4.523s-5.139-2.025-5.139-4.523,2.3-4.523,5.139-4.523S146.917,344.553,146.917,347.051Z" transform="translate(-109.684 -61.582)" fill="#fff"/>
        <path id="Path_4550" data-name="Path 4550" d="M113.667,322.31a4.764,4.764,0,1,1-4.725-4.158A4.47,4.47,0,0,1,113.667,322.31Z" transform="translate(-104.216 -57.471)" fill="#fff"/>
        <path id="Path_4551" data-name="Path 4551" d="M178.188,325.01a4.459,4.459,0,1,1-4.423-3.892A4.184,4.184,0,0,1,178.188,325.01Z" transform="translate(-115.199 -57.971)" fill="#fff"/>
        <path id="Path_4552" data-name="Path 4552" d="M197.4,305.8a3.438,3.438,0,1,1-3.41-3A3.225,3.225,0,0,1,197.4,305.8Z" transform="translate(-118.78 -54.881)" fill="#fff"/>
        <ellipse id="Ellipse_190" data-name="Ellipse 190" cx="2.816" cy="2.479" rx="2.816" ry="2.479" transform="translate(114.439 229.602)" fill="#fff"/>
      </g>
      <g id="Group_837" data-name="Group 837">
        <g id="Group_538" data-name="Group 538" transform="translate(399.725 3.779)" opacity="0.4">
          <path id="Path_4103" data-name="Path 4103" d="M609.595,232.632l17.683-17.414-10.38,47.07Z" transform="translate(-515.263 -125.54)" fill="none" stroke="#fff" stroke-miterlimit="10" stroke-width="2"/>
          <path id="Path_4104" data-name="Path 4104" d="M861.519,394.9,853.1,406.211l1.56-28.094Z" transform="translate(-556.33 -153.012)" fill="none" stroke="#fff" stroke-miterlimit="10" stroke-width="2"/>
          <path id="Path_4105" data-name="Path 4105" d="M693.426,307.314,716.58,279.65l-1.8,25.6Z" transform="translate(-529.401 -136.406)" fill="none" stroke="#fff" stroke-miterlimit="10" stroke-width="2"/>
          <path id="Path_4106" data-name="Path 4106" d="M718.307,321.066l22.173-11.224-19.073,1.938Z" transform="translate(-533.597 -141.498)" fill="none" stroke="#fff" stroke-miterlimit="10" stroke-width="2"/>
          <path id="Path_4107" data-name="Path 4107" d="M801.109,349.522l21.9,35.567-9.45-30.587Z" transform="translate(-547.561 -148.19)" fill="none" stroke="#fff" stroke-miterlimit="10" stroke-width="2"/>
          <path id="Path_4108" data-name="Path 4108" d="M706.917,414.812l34.3,9.355-26.65-12.189Z" transform="translate(-531.676 -158.723)" fill="none" stroke="#fff" stroke-miterlimit="10" stroke-width="2"/>
          <path id="Path_4109" data-name="Path 4109" d="M648.591,295.328,661.454,321.6l-5.65-22.7Z" transform="translate(-521.839 -139.05)" fill="none" stroke="#fff" stroke-miterlimit="10" stroke-width="2"/>
          <path id="Path_4110" data-name="Path 4110" d="M782.288,456.5l30.726-11.8L785.3,449.852Z" transform="translate(-544.387 -164.241)" fill="none" stroke="#fff" stroke-miterlimit="10" stroke-width="2"/>
          <path id="Path_4111" data-name="Path 4111" d="M821.655,439.2,787.2,408.788l25,28.689Z" transform="translate(-545.216 -158.185)" fill="none" stroke="#fff" stroke-miterlimit="10" stroke-width="2"/>
          <path id="Path_4112" data-name="Path 4112" d="M695.407,357.88l14.187,33.052,4.719-48.944Z" transform="translate(-529.735 -146.919)" fill="none" stroke="#fff" stroke-miterlimit="10" stroke-width="2"/>
          <path id="Path_4113" data-name="Path 4113" d="M655.358,327.642l19.973,24.714L613.95,322.08Z" transform="translate(-515.997 -143.562)" fill="none" stroke="#fff" stroke-miterlimit="10" stroke-width="2"/>
          <path id="Path_4114" data-name="Path 4114" d="M667.84,224.376l17.065,17.97-17.812-6.633Z" transform="translate(-524.96 -127.084)" fill="none" stroke="#fff" stroke-miterlimit="10" stroke-width="2"/>
          <path id="Path_4115" data-name="Path 4115" d="M612.333,265.239l-32.605-34.056,18.331,31.189Z" transform="translate(-510.226 -128.232)" fill="none" stroke="#fff" stroke-miterlimit="10" stroke-width="2"/>
          <path id="Path_4116" data-name="Path 4116" d="M508.21,181.262,496.127,199.64l13.521-12.964Z" transform="translate(-496.127 -119.813)" fill="none" stroke="#fff" stroke-miterlimit="10" stroke-width="2"/>
          <path id="Path_4117" data-name="Path 4117" d="M677.508,216.468,649.9,202l20.126,15.336Z" transform="translate(-522.06 -123.31)" fill="none" stroke="#fff" stroke-miterlimit="10" stroke-width="2"/>
          <path id="Path_4118" data-name="Path 4118" d="M703.5,439.048l-23.431-19.312,15.737,18.615Z" transform="translate(-527.149 -160.031)" fill="none" stroke="#fff" stroke-miterlimit="10" stroke-width="2"/>
          <path id="Path_4119" data-name="Path 4119" d="M547,251.9l-34.785,1.2,29.062,3.849Z" transform="translate(-498.839 -131.726)" fill="none" stroke="#fff" stroke-miterlimit="10" stroke-width="2"/>
          <path id="Path_4120" data-name="Path 4120" d="M550.678,244.236l-28.235-34.571,19.115,31.486Z" transform="translate(-500.565 -124.603)" fill="none" stroke="#fff" stroke-miterlimit="10" stroke-width="2"/>
          <path id="Path_4121" data-name="Path 4121" d="M611.836,164.562l-11.991,16.516,28.651-14.31Z" transform="translate(-513.619 -116.996)" fill="none" stroke="#fff" stroke-miterlimit="10" stroke-width="2"/>
          <path id="Path_4122" data-name="Path 4122" d="M697.233,205.29l18.531,1.184-32.618,12.793Z" transform="translate(-527.667 -123.865)" fill="none" stroke="#fff" stroke-miterlimit="10" stroke-width="2"/>
          <path id="Path_4123" data-name="Path 4123" d="M662.018,370.13l17.459,6.765-37.054,1.432Z" transform="translate(-520.799 -151.665)" fill="none" stroke="#fff" stroke-miterlimit="10" stroke-width="2"/>
          <path id="Path_4124" data-name="Path 4124" d="M778.453,181.761l11.564,12.177-12.07-4.5Z" transform="translate(-543.655 -119.897)" fill="none" stroke="#fff" stroke-miterlimit="10" stroke-width="2"/>
          <path id="Path_4125" data-name="Path 4125" d="M769.963,187.026l5.906,14.538.636-10.691Z" transform="translate(-542.309 -120.785)" fill="none" stroke="#fff" stroke-miterlimit="10" stroke-width="2"/>
          <path id="Path_4126" data-name="Path 4126" d="M780.289,229.006l-19.554-20.424,10.993,18.7Z" transform="translate(-540.752 -124.42)" fill="none" stroke="#fff" stroke-miterlimit="10" stroke-width="2"/>
          <path id="Path_4127" data-name="Path 4127" d="M710.607,165.452,700.782,180.4l10.995-10.541Z" transform="translate(-530.641 -117.147)" fill="none" stroke="#fff" stroke-miterlimit="10" stroke-width="2"/>
          <path id="Path_4128" data-name="Path 4128" d="M824.494,197.02l-20.862.721,17.429,2.308Z" transform="translate(-547.987 -122.47)" fill="none" stroke="#fff" stroke-miterlimit="10" stroke-width="2"/>
          <path id="Path_4129" data-name="Path 4129" d="M719.028,258.38l-20.862.721,17.429,2.308Z" transform="translate(-530.2 -132.819)" fill="none" stroke="#fff" stroke-miterlimit="10" stroke-width="2"/>
          <path id="Path_4130" data-name="Path 4130" d="M698.125,107.347l-20.862.721,17.429,2.308Z" transform="translate(-526.675 -107.347)" fill="none" stroke="#fff" stroke-miterlimit="10" stroke-width="2"/>
          <path id="Path_4131" data-name="Path 4131" d="M773.022,371.928l-19.957-15.037,50.528,12.1Z" transform="translate(-539.459 -149.432)" fill="none" stroke="#fff" stroke-miterlimit="10" stroke-width="2"/>
          <path id="Path_4132" data-name="Path 4132" d="M770.675,309.01l10.169,24.358-2.618-20.157Z" transform="translate(-542.429 -141.357)" fill="none" stroke="#fff" stroke-miterlimit="10" stroke-width="2"/>
          <path id="Path_4133" data-name="Path 4133" d="M859.494,314.12l21.053,1.068L863.3,311.428Z" transform="translate(-557.408 -141.765)" fill="none" stroke="#fff" stroke-miterlimit="10" stroke-width="2"/>
          <path id="Path_4134" data-name="Path 4134" d="M804.427,275.471l8.17-15.748-9.776,11.411Z" transform="translate(-547.85 -133.045)" fill="none" stroke="#fff" stroke-miterlimit="10" stroke-width="2"/>
          <path id="Path_4135" data-name="Path 4135" d="M799.023,125.989l-4.072-17.854-.03,14.779Z" transform="translate(-546.518 -107.48)" fill="none" stroke="#fff" stroke-miterlimit="10" stroke-width="2"/>
          <path id="Path_4136" data-name="Path 4136" d="M777.1,456.1l1.49,24.127,2.16-20.1Z" transform="translate(-543.513 -166.163)" fill="none" stroke="#fff" stroke-miterlimit="10" stroke-width="2"/>
          <path id="Path_4137" data-name="Path 4137" d="M756.521,395.154,748.4,406.346l19.415-9.7Z" transform="translate(-538.671 -155.885)" fill="none" stroke="#fff" stroke-miterlimit="10" stroke-width="2"/>
        </g>
        <g id="Group_539" data-name="Group 539" transform="translate(142.025 146)" opacity="0.6">
          <path id="Path_4138" data-name="Path 4138" d="M513.083,648.893l-5.061-4.222-4.157-3.741-6.651-6.235-4.988-4.157L488.9,628.46s-2.078-.831-3.325-1.247-2.494,1.663-3.741,1.663H475.6l-4.157-2.078-5.819-4.988-1.663-5.819-1.247-4.573-.831-3.741-2.91-2.91-2.494-5.82-9.837-1.525-8.868,3.88-5.543,3.325-11.084,8.314-21.061,3.88h-8.868s-14.964,2.771-16.627,3.879-13.856,1.109-14.41-.554-18.844-6.651-18.844-6.651L329.7,610.171s-6.651-3.325-8.314-3.325a71.25,71.25,0,0,1-10.531-2.217c-1.663-.555-6.651-10.531-6.651-10.531l-.554-9.422s-6.1-7.205-8.314-8.314S290.9,568.6,290.9,568.6l1.663-10.531,3.325-9.976v-7.759l-6.1-2.217-11.639,2.217-15.519,1.108-10.53-3.88a57.428,57.428,0,0,1-11.639-1.663c-7.205-1.663-8.868-2.216-8.868-2.216l-11.639-4.434-8.314-4.434-8.868-11.639-6.1-6.1-.555-6.651-3.879-9.422-6.1-18.29,1.109-15.518V446.117l2.216-13.855,4.434-11.085s2.216-9.976,2.216-12.193,3.88-12.748,3.88-12.748l8.868-18.29,9.976-14.964,11.639-7.2,6.651-3.325,5.542-9.976s6.651-9.423,8.868-9.976,13.3-8.314,16.073-9.423,14.964-7.2,14.964-7.2l8.314-4.988,12.748-6.651,10.53-5.543,17.182-7.759,18.29-1.663,12.193-1.663,13.3-2.217,11.084-.555,11.639-.554,18.844,2.216,6.1-2.216,15.519-1.663h10.53c2.217,0,18.29,1.663,18.29,1.663l23.832,1.663,3.533,9.768L500.54,313.1l33.67-8.314-12.055,27.5,9.561,8.106,68.656,7.978s-43.505,13.3-42.4,14.963,15.585,16.825,15.585,16.825l26.811-31.788s1.49,24.5,1.542,24.653L602.8,386.4s14.507,7.944,17.043,9.145c2.6,1.23,5.819,2.91,5.819,2.91l10.531,7.205s4.434,6.1,4.988,8.867,4.434,17.182,4.434,17.182l6.651,13.856,6.1,13.855,5.543,14.964,1.108,16.073-.554,11.639-1.109,7.2v16.627L657.8,539.782s-2.772,3.325-2.772,5.543-1.663,8.314-1.663,8.314l-3.879,8.313s-7.76,8.867-9.423,8.867-11.084,1.663-11.084,1.663l-13.856,4.988-4.988,13.856-7.759,8.868-4.434,5.542-9.423,6.1-9.422,7.759-15.519,3.325-8.867,6.1-10.531.555-6.1,3.325h-8.868l-1.663,8.868.208,16.7-8.313.624-2.7-7.829-1.247-2.286Z" transform="translate(-186.15 -282.618)" fill="none" stroke="#fff" stroke-miterlimit="10" stroke-width="2"/>
          <path id="Path_4139" data-name="Path 4139" d="M515.5,649.641l-11.627-39.8L435.772,426.361l108.486,32.421L515.577,347.8,321.051,378.976l51.126,97.263-127.19-14.964,36.162-109.733,103.5-28.68,16.211,108.486L526.8,526.118,415.82,576l-98.51-43.644-18.7-99.757,145.9-39.9,159.611,21.2-3.741,88.535L552.986,587.22l93.522-47.385v-63.6l-87.287,22.445L409.585,516.143,375.917,603.43,465.7,578.491l-47.385-92.275L345.99,517.39l-11.223-74.818,47.385-4.988L343.5,304.159l129.684-3.741-31.174,39.9,61.1,82.3,54.866-58.607-57.36-49.879,57.36,49.879-6.029,43.428,52.167,6.451h0l-46.138-49.879-42.4-16.21-14.964-33.668L443.869,339.27l-59.223-16.407,88.534-22.445,27.433,13.717-9.635-27.517-17.8,13.8-56.469-13.246L343.5,304.159l41.15,18.7L364.06,372.524l32.7,33.254,45.247-65.458,2.494,52.373-8.729,33.668-39.012-20.583-14.607,31.806-39.708-16.841,21.615-48.218-82.912-20.981,50.212-59.937L343.5,304.159l-34.86,14.051L350.758,330.4l40.459,36.025,52.652-27.157,71.708,8.532,18.632-42.341-33.6,8.673,31.656,27.353,25.7,22.526,67.684,35.115-21.546,14.764,58.126,57.286-15.729,5.062-46.138,26.186,46.138,37.409,15.729-68.657-18.29-42.122-39.836-15.164-59.854,44.891-41.15-36.162-67.336,3.741,49.665-27.234L515.577,347.8l-30.141,51.325-49.665,27.234-34.915,4.988-18.7,6.235-9.976,38.656,46.138,9.976-17.457-54.866-28.68,44.891L345.99,517.39l63.6-1.247,8.729-29.927,33.869-16.7L432.23,513.854l47.664,32.7,19.952-40.459,44.411-47.312-92.075,10.733,50.925-46.895,41.15,36.162,14.964,39.9,44.891-84.794,42.4,62.348L544.258,458.782l13.717-94.769L534.21,305.462,515.577,347.8l28.68,110.98,14.964,39.9,41.15,3.741L552.986,587.22l-26.186-61.1,32.421-27.433-6.235,88.535-73.092-40.666,73.092,40.666-23.765,46.349,34.362-9.976-10.6-36.373,62.141-9.075-51.544,45.447,51.544-45.447,31.381-38.31L655.033,546l-39.9,32.146-14.757-75.719L526.8,526.118l-25.29,79.738L465.7,578.491,415.82,576l16.41-62.143-22.645,2.289,6.572,58.123,4.988,39.351L446.641,598.1,465.7,578.491l-2.986,33.6,22.862,15.8,15.934-22.031-38.8,6.235,38.8-6.235,51.477-18.637-67.411,40.668,43.646,4.018L514.257,565.4l-14.41-59.3,3.261-83.474-67.336,3.741-34.915,4.988-18.7,6.235-39.708-16.841-21.394-41.766-39.9-27.433-13.525-27.792,41.013-5.542-27.488,33.334H237.14l7.846,109.733,53.619-28.68,22.445-53.62-76.065,82.3-48.859-51.618,85.021-58.115L298.605,432.6,196.127,409.658l23.832,120.269,25.027-68.651,44.806,77.518-69.833-8.868L298.605,432.6l36.162,9.976,37.409,33.668L314.81,533.606l24.032-61.6L298.605,432.6l-8.813,106.2,25.018-5.188-3.957,71.7,65.064-1.872L317.31,532.353,290.9,569.277l85.017,34.153-1.327,17.945,25.495-3.88,17.736-25.772,3.325,21.892L375.917,603.43,310.853,605.3,345.99,517.39l63.6-1.247L337.179,540.18l-19.869-7.827-27.518,6.441-69.833-8.868L186.15,473.395l58.836-12.119-25.027,68.651,118.883-57.918-4.074-29.437,7.677-21.829-21.394-41.766L196.127,409.658l41.013-58.115,30.483-27.792,41.013-5.542,36.579-13.856,71.5-17.181-32.066,35.691,59.223,16.407-27.158-52.1,58.195,13.3,10.53,98.654,72.537-35.115,58.262,12.945,9.422,22.169,22.724,77.593-97.545-69.834,49.534-57.837,3.741,64.842,44.27,62.829,14.964,33.254L655.033,546l-8.524-6.164-31.381,38.31L646.509,476.24l-46.138,26.186L526.8,526.118l88.328,52.027-17.181,28.266-44.96-19.191-23.765,44.686" transform="translate(-186.15 -283.293)" fill="none" stroke="#fff" stroke-miterlimit="10" stroke-width="2"/>
        </g>
        <path id="Path_4553" data-name="Path 4553" d="M149.448,633.532,329.71,746.208,638.958,592.88l192.394,58.554L556.269,633.878l-25.8,83.188,145.951-75.52L831.352,746.208,556.269,633.878,343.427,596.1,0,662.373l206.434,6.78L343.427,596.1,530.472,717.067,206.434,669.153,404.4,635.531l151.869-1.653,82.689-41,37.465,48.667,154.928-19.711-300.88,95.231L329.71,746.208,404.4,635.531,206.434,669.153,0,746.208,149.448,633.532l56.986,35.621-13.89,77.056Z" transform="translate(-12.73 -168.208)" fill="none" stroke="#fff" stroke-miterlimit="10" stroke-width="1" opacity="0.4"/>
        <g id="Group_543" data-name="Group 543" transform="translate(56.9 -31.966)" opacity="0.4">
          <path id="Path_4554" data-name="Path 4554" d="M820.256,124a.523.523,0,1,1-.523-.523A.523.523,0,0,1,820.256,124Z" transform="translate(-207.789 -74.323)" fill="#fff"/>
          <path id="Path_4555" data-name="Path 4555" d="M817.641,116.562a1.513,1.513,0,1,1-1.513-1.513A1.513,1.513,0,0,1,817.641,116.562Z" transform="translate(-207.014 -72.901)" fill="#fff"/>
          <path id="Path_4556" data-name="Path 4556" d="M788.291,130.048a1.379,1.379,0,1,1-1.379-1.38A1.379,1.379,0,0,1,788.291,130.048Z" transform="translate(-202.11 -75.198)" fill="#fff"/>
          <path id="Path_4557" data-name="Path 4557" d="M776.079,121.389a2.948,2.948,0,1,1-2.948-2.948A2.948,2.948,0,0,1,776.079,121.389Z" transform="translate(-199.521 -73.473)" fill="#fff"/>
          <path id="Path_4560" data-name="Path 4560" d="M680.449,123.679a.757.757,0,1,1-.757-.757A.757.757,0,0,1,680.449,123.679Z" transform="translate(-184.132 -74.229)" fill="#fff"/>
          <path id="Path_4561" data-name="Path 4561" d="M675.721,157.23a.851.851,0,1,1-.851-.851A.851.851,0,0,1,675.721,157.23Z" transform="translate(-183.303 -79.871)" fill="#fff"/>
          <path id="Path_4562" data-name="Path 4562" d="M648.592,115.275a3.306,3.306,0,1,1-3.306-3.306A3.306,3.306,0,0,1,648.592,115.275Z" transform="translate(-177.9 -72.382)" fill="#fff"/>
          <path id="Path_4563" data-name="Path 4563" d="M610.478,141a3.2,3.2,0,1,1-3.2-3.2A3.2,3.2,0,0,1,610.478,141Z" transform="translate(-171.506 -76.737)" fill="#fff"/>
          <path id="Path_4564" data-name="Path 4564" d="M582.136,158.848a1.451,1.451,0,1,1-1.451-1.452A1.451,1.451,0,0,1,582.136,158.848Z" transform="translate(-167.318 -80.043)" fill="#fff"/>
          <path id="Path_4565" data-name="Path 4565" d="M559.476,140.215a2.227,2.227,0,1,1-2.226-2.226A2.226,2.226,0,0,1,559.476,140.215Z" transform="translate(-163.234 -76.77)" fill="#fff"/>
          <path id="Path_4566" data-name="Path 4566" d="M547.48,181.923a1.488,1.488,0,1,1-1.488-1.489A1.488,1.488,0,0,1,547.48,181.923Z" transform="translate(-161.46 -83.928)" fill="#fff"/>
          <path id="Path_4567" data-name="Path 4567" d="M523.717,180.837a3.391,3.391,0,1,1-3.39-3.391A3.391,3.391,0,0,1,523.717,180.837Z" transform="translate(-156.811 -83.424)" fill="#fff"/>
          <path id="Path_4568" data-name="Path 4568" d="M511.4,172.744a1.57,1.57,0,1,1-1.57-1.57A1.57,1.57,0,0,1,511.4,172.744Z" transform="translate(-155.347 -82.367)" fill="#fff"/>
          <circle id="Ellipse_191" data-name="Ellipse 191" cx="2.913" cy="2.913" r="2.913" transform="translate(323.42 91.574)" fill="#fff"/>
          <circle id="Ellipse_192" data-name="Ellipse 192" cx="1.493" cy="1.493" r="1.493" transform="translate(316.326 82.324)" fill="#fff"/>
          <path id="Path_4569" data-name="Path 4569" d="M456.178,186.874a2.13,2.13,0,1,1-2.131-2.13A2.13,2.13,0,0,1,456.178,186.874Z" transform="translate(-145.846 -84.655)" fill="#fff"/>
          <path id="Path_4570" data-name="Path 4570" d="M439.155,189.988a2.471,2.471,0,1,1-2.471-2.47A2.471,2.471,0,0,1,439.155,189.988Z" transform="translate(-142.86 -85.123)" fill="#fff"/>
          <circle id="Ellipse_193" data-name="Ellipse 193" cx="1.735" cy="1.735" r="1.735" transform="translate(262.571 86.838)" fill="#fff"/>
          <path id="Path_4571" data-name="Path 4571" d="M378.327,127.043a2.983,2.983,0,1,1-2.983-2.983A2.984,2.984,0,0,1,378.327,127.043Z" transform="translate(-132.429 -74.421)" fill="#fff"/>
          <path id="Path_4572" data-name="Path 4572" d="M343.837,158.55a1.983,1.983,0,1,1-1.983-1.983A1.983,1.983,0,0,1,343.837,158.55Z" transform="translate(-126.949 -79.903)" fill="#fff"/>
          <circle id="Ellipse_194" data-name="Ellipse 194" cx="2.754" cy="2.754" r="2.754" transform="translate(200.611 57.995)" fill="#fff"/>
          <path id="Path_4573" data-name="Path 4573" d="M320.027,139.108a3.337,3.337,0,1,1-3.337-3.336A3.337,3.337,0,0,1,320.027,139.108Z" transform="translate(-122.477 -76.396)" fill="#fff"/>
          <path id="Path_4574" data-name="Path 4574" d="M313.141,121.832a2.071,2.071,0,1,1-2.071-2.072A2.071,2.071,0,0,1,313.141,121.832Z" transform="translate(-121.743 -73.696)" fill="#fff"/>
          <circle id="Ellipse_195" data-name="Ellipse 195" cx="2.864" cy="2.864" r="2.864" transform="translate(166.145 60.028)" fill="#fff"/>
          <path id="Path_4575" data-name="Path 4575" d="M252.131,90.871a.633.633,0,1,1-.633-.633A.633.633,0,0,1,252.131,90.871Z" transform="translate(-111.939 -68.717)" fill="#fff"/>
          <path id="Path_4579" data-name="Path 4579" d="M150.586,93.492a.683.683,0,1,1-.683-.683A.683.683,0,0,1,150.586,93.492Z" transform="translate(-94.797 -69.15)" fill="#fff"/>
          <path id="Path_4580" data-name="Path 4580" d="M139.2,105.877a1.37,1.37,0,1,1-1.37-1.37A1.37,1.37,0,0,1,139.2,105.877Z" transform="translate(-92.644 -71.123)" fill="#fff"/>
          <circle id="Ellipse_198" data-name="Ellipse 198" cx="0.947" cy="0.947" r="0.947" transform="translate(21.333 50.212)" fill="#fff"/>
          <path id="Path_4581" data-name="Path 4581" d="M99.048,149.541a3.47,3.47,0,1,1-3.469-3.47A3.47,3.47,0,0,1,99.048,149.541Z" transform="translate(-85.165 -78.133)" fill="#fff"/>
          <path id="Path_4582" data-name="Path 4582" d="M97.395,151.155a2.951,2.951,0,1,1-2.951-2.951A2.951,2.951,0,0,1,97.395,151.155Z" transform="translate(-85.061 -78.493)" fill="#fff"/>
          <circle id="Ellipse_199" data-name="Ellipse 199" cx="1.575" cy="1.575" r="1.575" transform="translate(33.058 96.185)" fill="#fff"/>
          <path id="Path_4583" data-name="Path 4583" d="M89.649,200.391a2.947,2.947,0,1,1-2.946-2.946A2.946,2.946,0,0,1,89.649,200.391Z" transform="translate(-83.756 -86.797)" fill="#fff"/>
          <circle id="Ellipse_200" data-name="Ellipse 200" cx="0.773" cy="0.773" r="0.773" transform="translate(16.524 123.498)" fill="#fff"/>
          <circle id="Ellipse_201" data-name="Ellipse 201" cx="0.774" cy="0.774" r="0.774" transform="translate(37.721 120.672)" fill="#fff"/>
          <path id="Path_4584" data-name="Path 4584" d="M137.025,253.5a1.252,1.252,0,1,1-1.253-1.253A1.252,1.252,0,0,1,137.025,253.5Z" transform="translate(-92.317 -96.039)" fill="#fff"/>
          <path id="Path_4585" data-name="Path 4585" d="M150.761,249.987a1.3,1.3,0,1,1-1.3-1.3A1.3,1.3,0,0,1,150.761,249.987Z" transform="translate(-94.618 -95.439)" fill="#fff"/>
          <path id="Path_4586" data-name="Path 4586" d="M130.426,271.856a.848.848,0,1,1-.847-.848A.847.847,0,0,1,130.426,271.856Z" transform="translate(-91.341 -99.203)" fill="#fff"/>
          <circle id="Ellipse_202" data-name="Ellipse 202" cx="1.768" cy="1.768" r="1.768" transform="translate(69.197 149.39)" fill="#fff"/>
          <circle id="Ellipse_203" data-name="Ellipse 203" cx="2.697" cy="2.697" r="2.697" transform="translate(73.898 164.188)" fill="#fff"/>
          <circle id="Ellipse_204" data-name="Ellipse 204" cx="2.862" cy="2.862" r="2.862" transform="translate(82.685 167.813)" fill="#fff"/>
          <circle id="Ellipse_205" data-name="Ellipse 205" cx="3.525" cy="3.525" r="3.525" transform="translate(62.386 184.088)" fill="#fff"/>
          <circle id="Ellipse_206" data-name="Ellipse 206" cx="1.995" cy="1.995" r="1.995" transform="translate(79.827 205.341)" fill="#fff"/>
          <path id="Path_4587" data-name="Path 4587" d="M165.98,326.768a.774.774,0,1,1-.774-.775A.774.774,0,0,1,165.98,326.768Z" transform="translate(-97.362 -108.477)" fill="#fff"/>
          <circle id="Ellipse_207" data-name="Ellipse 207" cx="3.432" cy="3.432" r="3.432" transform="translate(100.274 240.1)" fill="#fff"/>
          <path id="Path_4588" data-name="Path 4588" d="M181.66,393.142a.724.724,0,1,1-.724-.724A.724.724,0,0,1,181.66,393.142Z" transform="translate(-100.023 -119.679)" fill="#fff"/>
          <path id="Path_4589" data-name="Path 4589" d="M134.015,385.6a3,3,0,1,1-3-3.005A3,3,0,0,1,134.015,385.6Z" transform="translate(-91.219 -118.023)" fill="#fff"/>
          <path id="Path_4592" data-name="Path 4592" d="M148.715,513.479a1.351,1.351,0,1,1-1.35-1.35A1.351,1.351,0,0,1,148.715,513.479Z" transform="translate(-94.256 -139.868)" fill="#fff"/>
          <circle id="Ellipse_211" data-name="Ellipse 211" cx="0.442" cy="0.442" r="0.442" transform="translate(59.422 394.012)" fill="#fff"/>
          <path id="Path_4593" data-name="Path 4593" d="M205.4,546.363a2.813,2.813,0,1,1-2.812-2.812A2.813,2.813,0,0,1,205.4,546.363Z" transform="translate(-103.323 -145.167)" fill="#fff"/>
          <path id="Path_4594" data-name="Path 4594" d="M236.678,585.52a3.272,3.272,0,1,1-3.272-3.272A3.272,3.272,0,0,1,236.678,585.52Z" transform="translate(-108.442 -151.694)" fill="#fff"/>
          <path id="Path_4595" data-name="Path 4595" d="M256.173,626.456a1.258,1.258,0,1,1-1.259-1.258A1.259,1.259,0,0,1,256.173,626.456Z" transform="translate(-112.41 -158.937)" fill="#fff"/>
          <circle id="Ellipse_212" data-name="Ellipse 212" cx="2.882" cy="2.882" r="2.882" transform="translate(122.536 497.187)" fill="#fff"/>
          <circle id="Ellipse_213" data-name="Ellipse 213" cx="2.758" cy="2.758" r="2.758" transform="translate(91.384 513.66)" fill="#fff"/>
          <path id="Path_4596" data-name="Path 4596" d="M193.54,698.273a.772.772,0,1,1-.771-.772A.772.772,0,0,1,193.54,698.273Z" transform="translate(-102.011 -171.131)" fill="#fff"/>
          <path id="Path_4597" data-name="Path 4597" d="M190.82,709.531a1.181,1.181,0,1,1-1.181-1.181A1.181,1.181,0,0,1,190.82,709.531Z" transform="translate(-101.414 -172.961)" fill="#fff"/>
          <path id="Path_4598" data-name="Path 4598" d="M158.331,731.044a1.125,1.125,0,1,1-1.125-1.125A1.125,1.125,0,0,1,158.331,731.044Z" transform="translate(-95.953 -176.598)" fill="#fff"/>
          <path id="Path_4599" data-name="Path 4599" d="M146.475,752.589a.966.966,0,1,1-.965-.966A.965.965,0,0,1,146.475,752.589Z" transform="translate(-94.008 -180.258)" fill="#fff"/>
          <path id="Path_4600" data-name="Path 4600" d="M137.12,749.492a3.05,3.05,0,1,1-3.05-3.05A3.05,3.05,0,0,1,137.12,749.492Z" transform="translate(-91.727 -179.385)" fill="#fff"/>
          <path id="Path_4601" data-name="Path 4601" d="M136.83,794.83a2.418,2.418,0,1,1-2.418-2.418A2.418,2.418,0,0,1,136.83,794.83Z" transform="translate(-91.891 -187.137)" fill="#fff"/>
          <circle id="Ellipse_217" data-name="Ellipse 217" cx="2.567" cy="2.567" r="2.567" transform="translate(195.181 604.304)" fill="#fff"/>
          <path id="Path_4612" data-name="Path 4612" d="M329.12,753.754a1.018,1.018,0,1,1-1.018-1.018A1.018,1.018,0,0,1,329.12,753.754Z" transform="translate(-124.793 -180.446)" fill="#fff"/>
          <path id="Path_4613" data-name="Path 4613" d="M339.123,759.241a1.112,1.112,0,1,1-1.112-1.112A1.112,1.112,0,0,1,339.123,759.241Z" transform="translate(-126.448 -181.356)" fill="#fff"/>
          <path id="Path_4614" data-name="Path 4614" d="M365.979,763.725a3.514,3.514,0,1,1-3.514-3.514A3.514,3.514,0,0,1,365.979,763.725Z" transform="translate(-130.167 -181.707)" fill="#fff"/>
          <path id="Path_4615" data-name="Path 4615" d="M415.752,771.4a2,2,0,1,1-2-2A2,2,0,0,1,415.752,771.4Z" transform="translate(-139.072 -183.257)" fill="#fff"/>
          <path id="Path_4628" data-name="Path 4628" d="M662.364,786.145a1.12,1.12,0,1,1-1.12-1.121A1.12,1.12,0,0,1,662.364,786.145Z" transform="translate(-180.96 -185.891)" fill="#fff"/>
          <path id="Path_4629" data-name="Path 4629" d="M666.171,766.86a.493.493,0,1,1-.493-.492A.492.492,0,0,1,666.171,766.86Z" transform="translate(-181.813 -182.745)" fill="#fff"/>
          <path id="Path_4630" data-name="Path 4630" d="M658.231,723.267a3.26,3.26,0,1,1-3.26-3.261A3.26,3.26,0,0,1,658.231,723.267Z" transform="translate(-179.541 -174.926)" fill="#fff"/>
          <circle id="Ellipse_223" data-name="Ellipse 223" cx="1.349" cy="1.349" r="1.349" transform="translate(509.049 554.504)" fill="#fff"/>
          <path id="Path_4631" data-name="Path 4631" d="M731.442,729.552a3.017,3.017,0,1,1-3.017-3.017A3.017,3.017,0,0,1,731.442,729.552Z" transform="translate(-191.97 -176.027)" fill="#fff"/>
          <path id="Path_4632" data-name="Path 4632" d="M724.145,784.137a3.378,3.378,0,1,1-3.378-3.378A3.378,3.378,0,0,1,724.145,784.137Z" transform="translate(-190.617 -185.172)" fill="#fff"/>
          <path id="Path_4633" data-name="Path 4633" d="M747.052,779.269a.417.417,0,1,1-.417-.417A.417.417,0,0,1,747.052,779.269Z" transform="translate(-195.479 -184.851)" fill="#fff"/>
          <circle id="Ellipse_224" data-name="Ellipse 224" cx="1.851" cy="1.851" r="1.851" transform="translate(657.383 606.145)" fill="#fff"/>
          <path id="Path_4642" data-name="Path 4642" d="M893.948,793.421a2.954,2.954,0,1,1-2.954-2.955A2.954,2.954,0,0,1,893.948,793.421Z" transform="translate(-219.397 -186.809)" fill="#fff"/>
          <path id="Path_4643" data-name="Path 4643" d="M891.847,766.894a1.019,1.019,0,1,1-1.019-1.019A1.02,1.02,0,0,1,891.847,766.894Z" transform="translate(-219.696 -182.662)" fill="#fff"/>
          <path id="Path_4644" data-name="Path 4644" d="M868.446,749.966a1.705,1.705,0,1,1-1.705-1.705A1.705,1.705,0,0,1,868.446,749.966Z" transform="translate(-215.518 -179.691)" fill="#fff"/>
          <path id="Path_4645" data-name="Path 4645" d="M915.076,707.754a2.88,2.88,0,1,1-2.881-2.88A2.88,2.88,0,0,1,915.076,707.754Z" transform="translate(-222.985 -172.374)" fill="#fff"/>
          <path id="Path_4646" data-name="Path 4646" d="M891.2,676.483a.521.521,0,1,1-.521-.521A.521.521,0,0,1,891.2,676.483Z" transform="translate(-219.754 -167.498)" fill="#fff"/>
          <path id="Path_4647" data-name="Path 4647" d="M862.934,635.934a1.056,1.056,0,1,1-1.056-1.057A1.056,1.056,0,0,1,862.934,635.934Z" transform="translate(-214.807 -160.569)" fill="#fff"/>
          <path id="Path_4648" data-name="Path 4648" d="M855.544,611.759a2,2,0,1,1-2-2A2,2,0,0,1,855.544,611.759Z" transform="translate(-213.242 -156.333)" fill="#fff"/>
          <path id="Path_4649" data-name="Path 4649" d="M879.719,600.281a2.694,2.694,0,1,1-2.694-2.694A2.694,2.694,0,0,1,879.719,600.281Z" transform="translate(-217.085 -154.28)" fill="#fff"/>
          <circle id="Ellipse_225" data-name="Ellipse 225" cx="0.798" cy="0.798" r="0.798" transform="translate(678.945 420.502)" fill="#fff"/>
          <path id="Path_4650" data-name="Path 4650" d="M859.226,546.706a.781.781,0,1,1-.781-.781A.782.782,0,0,1,859.226,546.706Z" transform="translate(-214.274 -145.568)" fill="#fff"/>
          <path id="Path_4651" data-name="Path 4651" d="M898.681,530.573a2.253,2.253,0,1,1-2.253-2.253A2.253,2.253,0,0,1,898.681,530.573Z" transform="translate(-220.432 -142.599)" fill="#fff"/>
          <path id="Path_4652" data-name="Path 4652" d="M898.72,516.609a.529.529,0,1,1-.53-.53A.53.53,0,0,1,898.72,516.609Z" transform="translate(-221.02 -140.534)" fill="#fff"/>
          <path id="Path_4653" data-name="Path 4653" d="M910.819,500.589a2.075,2.075,0,1,1-2.076-2.075A2.075,2.075,0,0,1,910.819,500.589Z" transform="translate(-222.539 -137.572)" fill="#fff"/>
        </g>
      </g>
    </g>
  </g>
</svg>
