<svg xmlns="http://www.w3.org/2000/svg" width="90.257" height="69.5" viewBox="0 0 90.257 69.5">
  <g id="Group_2669" data-name="Group 2669" transform="translate(-1134.75 -2042.75)">
    <g id="laptop" transform="translate(1135 1983.799)">
      <g id="Group_2658" data-name="Group 2658" transform="translate(0 59.201)">
        <g id="Group_2657" data-name="Group 2657" transform="translate(0 0)">
          <path id="Path_14017" data-name="Path 14017" d="M89.753,121.761c0-.013,0-.026,0-.039a1.286,1.286,0,0,0-.023-.153l0-.015a1.273,1.273,0,0,0-.038-.135l-.013-.035q-.022-.06-.05-.116c0-.007-.005-.013-.009-.02l-7.032-13.87V61.746A2.548,2.548,0,0,0,80.037,59.2H9.719a2.548,2.548,0,0,0-2.545,2.545v45.632L.142,121.248c0,.007-.005.013-.009.02-.018.038-.035.076-.05.116l-.013.035a1.336,1.336,0,0,0-.038.135l0,.014a1.3,1.3,0,0,0-.023.153c0,.013,0,.026,0,.039s0,.054,0,.082v3.335A3.026,3.026,0,0,0,3.023,128.2H86.734a3.026,3.026,0,0,0,3.023-3.023v-3.335C89.757,121.815,89.754,121.788,89.753,121.761ZM9.8,61.831H79.953v44.547H9.8ZM9.3,109.007H80.46L86.3,120.528H57.414l-1.45-5.257a2.483,2.483,0,0,0-2.387-1.818h-17.4a2.482,2.482,0,0,0-2.387,1.818l-1.45,5.257H3.455Zm45.39,11.521H35.07l1.226-4.445H53.461Zm32.441,4.65a.394.394,0,0,1-.393.393H3.023a.394.394,0,0,1-.393-.393v-2.021h84.5Z" transform="translate(0 -59.201)" fill="#0f95f2" stroke="#0f95f2" stroke-width="0.5"/>
        </g>
      </g>
      <g id="Group_2660" data-name="Group 2660" transform="translate(12.609 86.295)">
        <g id="Group_2659" data-name="Group 2659" transform="translate(0 0)">
          <path id="Path_14018" data-name="Path 14018" d="M135.148,213.756a1.315,1.315,0,0,0-1.315,1.315V228.4H74.553V215.071a1.315,1.315,0,0,0-2.63,0v13.9a2.064,2.064,0,0,0,2.062,2.062H134.4a2.064,2.064,0,0,0,2.062-2.062v-13.9A1.315,1.315,0,0,0,135.148,213.756Z" transform="translate(-71.923 -213.756)" fill="#0f95f2" stroke="#0f95f2" stroke-width="0.5"/>
        </g>
      </g>
      <g id="Group_2662" data-name="Group 2662" transform="translate(12.609 64.636)">
        <g id="Group_2661" data-name="Group 2661" transform="translate(0 0)">
          <path id="Path_14019" data-name="Path 14019" d="M134.4,90.2H73.985a2.064,2.064,0,0,0-2.062,2.062v13.9a1.315,1.315,0,0,0,2.63,0V92.833h59.28v13.333a1.315,1.315,0,0,0,2.63,0v-13.9A2.064,2.064,0,0,0,134.4,90.2Z" transform="translate(-71.923 -90.203)" fill="#0f95f2" stroke="#0f95f2" stroke-width="0.5"/>
        </g>
      </g>
    </g>
  </g>
</svg>
